<svg xmlns="http://www.w3.org/2000/svg" width="1280" height="300" viewBox="0 0 1280 300" role="img" aria-label="Little Lemon API">
<defs><radialGradient id="l"><stop offset="0" stop-color="#EAB308" stop-opacity=".45"/><stop offset="1" stop-color="#EAB308" stop-opacity="0"/></radialGradient>
<clipPath id="m"><rect width="1280" height="300" rx="20"/></clipPath><style>.s{font-family:'Segoe UI', Ubuntu, 'Helvetica Neue', Arial, sans-serif}</style></defs>
<g clip-path="url(#m)"><rect width="1280" height="300" fill="#0D1117"/>
<line x1="0" y1="0" x2="0" y2="300" stroke="#21262D"/><line x1="48" y1="0" x2="48" y2="300" stroke="#21262D"/><line x1="96" y1="0" x2="96" y2="300" stroke="#21262D"/><line x1="144" y1="0" x2="144" y2="300" stroke="#21262D"/><line x1="192" y1="0" x2="192" y2="300" stroke="#21262D"/><line x1="240" y1="0" x2="240" y2="300" stroke="#21262D"/><line x1="288" y1="0" x2="288" y2="300" stroke="#21262D"/><line x1="336" y1="0" x2="336" y2="300" stroke="#21262D"/><line x1="384" y1="0" x2="384" y2="300" stroke="#21262D"/><line x1="432" y1="0" x2="432" y2="300" stroke="#21262D"/><line x1="480" y1="0" x2="480" y2="300" stroke="#21262D"/><line x1="528" y1="0" x2="528" y2="300" stroke="#21262D"/><line x1="576" y1="0" x2="576" y2="300" stroke="#21262D"/><line x1="624" y1="0" x2="624" y2="300" stroke="#21262D"/><line x1="672" y1="0" x2="672" y2="300" stroke="#21262D"/><line x1="720" y1="0" x2="720" y2="300" stroke="#21262D"/><line x1="768" y1="0" x2="768" y2="300" stroke="#21262D"/><line x1="816" y1="0" x2="816" y2="300" stroke="#21262D"/><line x1="864" y1="0" x2="864" y2="300" stroke="#21262D"/><line x1="912" y1="0" x2="912" y2="300" stroke="#21262D"/><line x1="960" y1="0" x2="960" y2="300" stroke="#21262D"/><line x1="1008" y1="0" x2="1008" y2="300" stroke="#21262D"/><line x1="1056" y1="0" x2="1056" y2="300" stroke="#21262D"/><line x1="1104" y1="0" x2="1104" y2="300" stroke="#21262D"/><line x1="1152" y1="0" x2="1152" y2="300" stroke="#21262D"/><line x1="1200" y1="0" x2="1200" y2="300" stroke="#21262D"/><line x1="1248" y1="0" x2="1248" y2="300" stroke="#21262D"/>
<circle cx="1060" cy="150" r="300" fill="url(#l)"><animate attributeName="r" values="280;330;280" dur="8s" repeatCount="indefinite"/></circle>
<text x="1070" y="205" text-anchor="middle" font-size="170" class="s" fill="#EAB308" fill-opacity=".9">🍋</text>
<text x="70" y="140" class="s" font-size="64" font-weight="800" fill="#E6EDF3" letter-spacing="-1">Little Lemon API</text>
<text x="72" y="190" class="s" font-size="26" fill="#8B949E">Django REST Framework · MySQL · tests</text>
<rect x="72" y="222" width="180" height="6" rx="3" fill="#EAB308"/>
<rect width="1280" height="300" rx="20" fill="none" stroke="#30363D" stroke-width="2"/></g></svg>